<mxfile host="app.diagrams.net" modified="2023-12-29T20:17:03.383Z" agent="Mozilla/5.0 (Windows NT 10.0; Win64; x64) AppleWebKit/537.36 (KHTML, like Gecko) Chrome/120.0.0.0 Safari/537.36 Edg/120.0.0.0" etag="b6wLnIDowVnhbprRmJEJ" version="22.1.16" type="device">
  <diagram id="9psBLqmak3lMU7G5c20V" name="Page-1">
    <mxGraphModel dx="1489" dy="813" grid="1" gridSize="10" guides="1" tooltips="1" connect="1" arrows="1" fold="1" page="0" pageScale="1" pageWidth="827" pageHeight="1169" math="1" shadow="0">
      <root>
        <mxCell id="0" />
        <mxCell id="1" parent="0" />
        <mxCell id="FeHKe5AxDK6OaH7JaS3C-54" value="" style="rounded=1;whiteSpace=wrap;html=1;strokeWidth=4;" parent="1" vertex="1">
          <mxGeometry x="10" y="55" width="740" height="795" as="geometry" />
        </mxCell>
        <mxCell id="Nr69Wi0nUV-9w_bvXHgk-59" style="edgeStyle=orthogonalEdgeStyle;rounded=0;orthogonalLoop=1;jettySize=auto;html=1;fontSize=18;endArrow=none;endFill=0;strokeWidth=2;exitX=0.5;exitY=1;exitDx=0;exitDy=0;" parent="1" source="Nr69Wi0nUV-9w_bvXHgk-21" edge="1">
          <mxGeometry relative="1" as="geometry">
            <mxPoint x="240" y="760" as="targetPoint" />
            <Array as="points">
              <mxPoint x="505" y="720" />
              <mxPoint x="590" y="720" />
              <mxPoint x="590" y="800" />
              <mxPoint x="240" y="800" />
            </Array>
          </mxGeometry>
        </mxCell>
        <mxCell id="Nr69Wi0nUV-9w_bvXHgk-21" value="" style="rounded=0;whiteSpace=wrap;html=1;strokeWidth=2;" parent="1" vertex="1">
          <mxGeometry x="440" y="625" width="130" height="55" as="geometry" />
        </mxCell>
        <mxCell id="Nr69Wi0nUV-9w_bvXHgk-55" style="edgeStyle=orthogonalEdgeStyle;rounded=0;orthogonalLoop=1;jettySize=auto;html=1;exitX=0.5;exitY=1;exitDx=0;exitDy=0;entryX=0.5;entryY=0;entryDx=0;entryDy=0;fontSize=18;strokeWidth=2;" parent="1" source="Nr69Wi0nUV-9w_bvXHgk-19" target="Nr69Wi0nUV-9w_bvXHgk-21" edge="1">
          <mxGeometry relative="1" as="geometry">
            <Array as="points" />
          </mxGeometry>
        </mxCell>
        <mxCell id="Nr69Wi0nUV-9w_bvXHgk-19" value="" style="rounded=0;whiteSpace=wrap;html=1;strokeWidth=2;" parent="1" vertex="1">
          <mxGeometry x="440" y="550.5" width="130" height="55" as="geometry" />
        </mxCell>
        <mxCell id="Nr69Wi0nUV-9w_bvXHgk-52" style="edgeStyle=orthogonalEdgeStyle;rounded=0;orthogonalLoop=1;jettySize=auto;html=1;exitX=0.5;exitY=1;exitDx=0;exitDy=0;entryX=0.5;entryY=0;entryDx=0;entryDy=0;fontSize=18;strokeWidth=2;" parent="1" source="Nr69Wi0nUV-9w_bvXHgk-5" target="Nr69Wi0nUV-9w_bvXHgk-19" edge="1">
          <mxGeometry relative="1" as="geometry" />
        </mxCell>
        <mxCell id="Nr69Wi0nUV-9w_bvXHgk-53" style="edgeStyle=orthogonalEdgeStyle;rounded=0;orthogonalLoop=1;jettySize=auto;html=1;exitX=0.5;exitY=1;exitDx=0;exitDy=0;entryX=0.5;entryY=0;entryDx=0;entryDy=0;fontSize=18;strokeWidth=2;" parent="1" source="Nr69Wi0nUV-9w_bvXHgk-5" target="Nr69Wi0nUV-9w_bvXHgk-30" edge="1">
          <mxGeometry relative="1" as="geometry" />
        </mxCell>
        <mxCell id="Nr69Wi0nUV-9w_bvXHgk-5" value="" style="rhombus;whiteSpace=wrap;html=1;strokeWidth=2;fontSize=28;" parent="1" vertex="1">
          <mxGeometry x="518.75" y="310" width="125" height="120" as="geometry" />
        </mxCell>
        <mxCell id="FeHKe5AxDK6OaH7JaS3C-24" style="edgeStyle=orthogonalEdgeStyle;rounded=0;orthogonalLoop=1;jettySize=auto;html=1;exitX=0.5;exitY=1;exitDx=0;exitDy=0;entryX=0.25;entryY=1;entryDx=0;entryDy=0;strokeWidth=2;" parent="1" source="FeHKe5AxDK6OaH7JaS3C-19" target="FeHKe5AxDK6OaH7JaS3C-11" edge="1">
          <mxGeometry relative="1" as="geometry" />
        </mxCell>
        <mxCell id="FeHKe5AxDK6OaH7JaS3C-19" value="" style="rounded=0;whiteSpace=wrap;html=1;strokeWidth=2;" parent="1" vertex="1">
          <mxGeometry x="250" y="145" width="190" height="30" as="geometry" />
        </mxCell>
        <mxCell id="FeHKe5AxDK6OaH7JaS3C-23" style="edgeStyle=orthogonalEdgeStyle;rounded=0;orthogonalLoop=1;jettySize=auto;html=1;exitX=0.5;exitY=1;exitDx=0;exitDy=0;entryX=0.75;entryY=1;entryDx=0;entryDy=0;strokeWidth=2;" parent="1" source="FeHKe5AxDK6OaH7JaS3C-14" target="FeHKe5AxDK6OaH7JaS3C-11" edge="1">
          <mxGeometry relative="1" as="geometry" />
        </mxCell>
        <mxCell id="FeHKe5AxDK6OaH7JaS3C-14" value="" style="rounded=0;whiteSpace=wrap;html=1;strokeWidth=2;" parent="1" vertex="1">
          <mxGeometry x="110" y="145" width="60" height="30" as="geometry" />
        </mxCell>
        <mxCell id="Nr69Wi0nUV-9w_bvXHgk-33" style="edgeStyle=orthogonalEdgeStyle;rounded=0;orthogonalLoop=1;jettySize=auto;html=1;exitX=0.5;exitY=0;exitDx=0;exitDy=0;entryX=0.5;entryY=0;entryDx=0;entryDy=0;fontSize=18;strokeWidth=2;" parent="1" source="FeHKe5AxDK6OaH7JaS3C-11" target="Nr69Wi0nUV-9w_bvXHgk-1" edge="1">
          <mxGeometry relative="1" as="geometry" />
        </mxCell>
        <mxCell id="FeHKe5AxDK6OaH7JaS3C-11" value="" style="shape=trapezoid;perimeter=trapezoidPerimeter;whiteSpace=wrap;html=1;rotation=-180;strokeWidth=2;" parent="1" vertex="1">
          <mxGeometry x="180" y="220" width="120" height="60" as="geometry" />
        </mxCell>
        <mxCell id="FeHKe5AxDK6OaH7JaS3C-13" value="&lt;font face=&quot;Times New Roman&quot; style=&quot;font-size: 18px&quot;&gt;$$x_{n}$$&lt;/font&gt;" style="text;html=1;strokeColor=none;fillColor=none;align=center;verticalAlign=middle;whiteSpace=wrap;rounded=0;" parent="1" vertex="1">
          <mxGeometry x="120" y="150" width="40" height="20" as="geometry" />
        </mxCell>
        <mxCell id="FeHKe5AxDK6OaH7JaS3C-25" value="&lt;font style=&quot;font-size: 18px&quot; face=&quot;Times New Roman&quot;&gt;$$\mbox{MUX}$$&lt;/font&gt;" style="text;html=1;strokeColor=none;fillColor=none;align=center;verticalAlign=middle;whiteSpace=wrap;rounded=0;" parent="1" vertex="1">
          <mxGeometry x="220" y="240" width="40" height="20" as="geometry" />
        </mxCell>
        <mxCell id="FeHKe5AxDK6OaH7JaS3C-27" value="&lt;font face=&quot;Times New Roman&quot; style=&quot;font-size: 18px&quot;&gt;$$0$$&lt;/font&gt;" style="text;html=1;strokeColor=none;fillColor=none;align=center;verticalAlign=middle;whiteSpace=wrap;rounded=0;" parent="1" vertex="1">
          <mxGeometry x="190" y="220" width="40" height="20" as="geometry" />
        </mxCell>
        <mxCell id="FeHKe5AxDK6OaH7JaS3C-28" value="&lt;font face=&quot;Times New Roman&quot; style=&quot;font-size: 18px&quot;&gt;$$1$$&lt;/font&gt;" style="text;html=1;strokeColor=none;fillColor=none;align=center;verticalAlign=middle;whiteSpace=wrap;rounded=0;" parent="1" vertex="1">
          <mxGeometry x="250" y="220" width="40" height="20" as="geometry" />
        </mxCell>
        <mxCell id="FeHKe5AxDK6OaH7JaS3C-55" value="&lt;font face=&quot;Times New Roman&quot; size=&quot;1&quot;&gt;&lt;b style=&quot;font-size: 20px&quot;&gt;$$\mbox{The Proposed Digital Tent Map}$$&lt;/b&gt;&lt;/font&gt;" style="text;html=1;strokeColor=none;fillColor=none;align=center;verticalAlign=middle;whiteSpace=wrap;rounded=0;" parent="1" vertex="1">
          <mxGeometry x="282.5" y="80" width="195" height="20" as="geometry" />
        </mxCell>
        <mxCell id="FeHKe5AxDK6OaH7JaS3C-60" value="&lt;font face=&quot;Times New Roman&quot; style=&quot;font-size: 18px&quot;&gt;$$pr \mbox{ bits}$$&lt;/font&gt;" style="text;html=1;strokeColor=none;fillColor=none;align=center;verticalAlign=middle;whiteSpace=wrap;rounded=0;" parent="1" vertex="1">
          <mxGeometry x="270" y="180" width="50" height="15" as="geometry" />
        </mxCell>
        <mxCell id="0HrdnU-paA8ifOm6ZiVV-5" style="edgeStyle=orthogonalEdgeStyle;rounded=0;orthogonalLoop=1;jettySize=auto;html=1;exitX=0;exitY=0.5;exitDx=0;exitDy=0;entryX=0;entryY=0.5;entryDx=0;entryDy=0;strokeWidth=2;" parent="1" source="0HrdnU-paA8ifOm6ZiVV-1" target="FeHKe5AxDK6OaH7JaS3C-11" edge="1">
          <mxGeometry relative="1" as="geometry" />
        </mxCell>
        <mxCell id="0HrdnU-paA8ifOm6ZiVV-1" value="&lt;font face=&quot;Times New Roman&quot; style=&quot;font-size: 18px&quot;&gt;$$\mbox{Selector}$$&lt;/font&gt;" style="text;html=1;align=center;verticalAlign=middle;whiteSpace=wrap;rounded=0;" parent="1" vertex="1">
          <mxGeometry x="320" y="240" width="70" height="20" as="geometry" />
        </mxCell>
        <mxCell id="SsBugj1qO_zvcVvCPO-J-2" value="&lt;font face=&quot;Times New Roman&quot; style=&quot;font-size: 18px&quot;&gt;$$pr \mbox{ bits}$$&lt;/font&gt;" style="text;html=1;strokeColor=none;fillColor=none;align=center;verticalAlign=middle;whiteSpace=wrap;rounded=0;" parent="1" vertex="1">
          <mxGeometry x="160" y="180" width="50" height="15" as="geometry" />
        </mxCell>
        <mxCell id="SsBugj1qO_zvcVvCPO-J-3" value="&lt;font face=&quot;Times New Roman&quot; style=&quot;font-size: 18px&quot;&gt;$$pr \mbox{ bits}$$&lt;/font&gt;" style="text;html=1;strokeColor=none;fillColor=none;align=center;verticalAlign=middle;whiteSpace=wrap;rounded=0;" parent="1" vertex="1">
          <mxGeometry x="20" y="427.5" width="50" height="20" as="geometry" />
        </mxCell>
        <mxCell id="H7YKW8HKfVctBGTN-zOs-3" value="&lt;span style=&quot;background-color: rgb(255 , 255 , 255)&quot;&gt;$$\mbox{Initial Condition} \ x_{0}$$&lt;/span&gt;" style="text;html=1;strokeColor=none;fillColor=none;align=center;verticalAlign=middle;whiteSpace=wrap;rounded=0;fontFamily=Times New Roman;fontSize=18;" parent="1" vertex="1">
          <mxGeometry x="255" y="147.5" width="180" height="25" as="geometry" />
        </mxCell>
        <mxCell id="Nr69Wi0nUV-9w_bvXHgk-11" style="edgeStyle=orthogonalEdgeStyle;rounded=0;orthogonalLoop=1;jettySize=auto;html=1;fontSize=18;strokeWidth=2;entryX=0;entryY=0.5;entryDx=0;entryDy=0;" parent="1" source="Nr69Wi0nUV-9w_bvXHgk-1" target="Nr69Wi0nUV-9w_bvXHgk-5" edge="1">
          <mxGeometry relative="1" as="geometry">
            <mxPoint x="380" y="370" as="targetPoint" />
          </mxGeometry>
        </mxCell>
        <mxCell id="Nr69Wi0nUV-9w_bvXHgk-39" style="edgeStyle=orthogonalEdgeStyle;rounded=0;orthogonalLoop=1;jettySize=auto;html=1;exitX=0.5;exitY=1;exitDx=0;exitDy=0;fontSize=18;strokeWidth=2;" parent="1" source="Nr69Wi0nUV-9w_bvXHgk-1" target="Nr69Wi0nUV-9w_bvXHgk-24" edge="1">
          <mxGeometry relative="1" as="geometry" />
        </mxCell>
        <mxCell id="Nr69Wi0nUV-9w_bvXHgk-41" style="edgeStyle=orthogonalEdgeStyle;rounded=0;orthogonalLoop=1;jettySize=auto;html=1;exitX=0.5;exitY=1;exitDx=0;exitDy=0;entryX=0.5;entryY=0;entryDx=0;entryDy=0;fontSize=18;strokeWidth=2;" parent="1" source="Nr69Wi0nUV-9w_bvXHgk-1" target="Nr69Wi0nUV-9w_bvXHgk-27" edge="1">
          <mxGeometry relative="1" as="geometry" />
        </mxCell>
        <mxCell id="Nr69Wi0nUV-9w_bvXHgk-1" value="" style="rhombus;whiteSpace=wrap;html=1;strokeWidth=2;fontSize=28;" parent="1" vertex="1">
          <mxGeometry x="175" y="310" width="125" height="120" as="geometry" />
        </mxCell>
        <mxCell id="Nr69Wi0nUV-9w_bvXHgk-2" value="&lt;font style=&quot;font-size: 18px&quot; face=&quot;Times New Roman&quot;&gt;$$b_1 \ \mbox{of} \ x_{n}=0$$&lt;/font&gt;" style="text;html=1;strokeColor=none;fillColor=none;align=center;verticalAlign=middle;whiteSpace=wrap;rounded=0;" parent="1" vertex="1">
          <mxGeometry x="181.25" y="360" width="110" height="20" as="geometry" />
        </mxCell>
        <mxCell id="Nr69Wi0nUV-9w_bvXHgk-12" value="&lt;font face=&quot;Times New Roman&quot; style=&quot;font-size: 18px&quot;&gt;$$\mbox{No}$$&lt;/font&gt;" style="text;html=1;strokeColor=none;fillColor=none;align=center;verticalAlign=middle;whiteSpace=wrap;rounded=0;" parent="1" vertex="1">
          <mxGeometry x="291.25" y="350" width="50" height="15" as="geometry" />
        </mxCell>
        <mxCell id="Nr69Wi0nUV-9w_bvXHgk-13" value="&lt;font style=&quot;font-size: 18px&quot; face=&quot;Times New Roman&quot;&gt;$$b_1 \ \mbox{of} \ x_{n}=1$$&lt;/font&gt;" style="text;html=1;strokeColor=none;fillColor=none;align=center;verticalAlign=middle;whiteSpace=wrap;rounded=0;" parent="1" vertex="1">
          <mxGeometry x="527.5" y="360" width="110" height="20" as="geometry" />
        </mxCell>
        <mxCell id="Nr69Wi0nUV-9w_bvXHgk-17" value="&lt;font style=&quot;font-size: 18px&quot; face=&quot;Times New Roman&quot;&gt;$$\mbox{Shift Left}$$&lt;/font&gt;" style="text;html=1;strokeColor=none;fillColor=none;align=center;verticalAlign=middle;whiteSpace=wrap;rounded=0;" parent="1" vertex="1">
          <mxGeometry x="455" y="610" width="100" height="60" as="geometry" />
        </mxCell>
        <mxCell id="Nr69Wi0nUV-9w_bvXHgk-18" value="&lt;font style=&quot;font-size: 18px&quot; face=&quot;Times New Roman&quot;&gt;$$\mbox{Operation}$$&lt;/font&gt;" style="text;html=1;strokeColor=none;fillColor=none;align=center;verticalAlign=middle;whiteSpace=wrap;rounded=0;" parent="1" vertex="1">
          <mxGeometry x="455" y="635" width="100" height="60" as="geometry" />
        </mxCell>
        <mxCell id="Nr69Wi0nUV-9w_bvXHgk-20" value="&lt;font style=&quot;font-size: 18px&quot; face=&quot;Times New Roman&quot;&gt;$$\mbox{Bitwise NOT}$$&lt;/font&gt;" style="text;html=1;strokeColor=none;fillColor=none;align=center;verticalAlign=middle;whiteSpace=wrap;rounded=0;" parent="1" vertex="1">
          <mxGeometry x="455" y="548" width="100" height="60" as="geometry" />
        </mxCell>
        <mxCell id="Nr69Wi0nUV-9w_bvXHgk-56" style="edgeStyle=orthogonalEdgeStyle;rounded=0;orthogonalLoop=1;jettySize=auto;html=1;exitX=0.5;exitY=1;exitDx=0;exitDy=0;entryX=0.5;entryY=0;entryDx=0;entryDy=0;fontSize=18;strokeWidth=2;" parent="1" source="Nr69Wi0nUV-9w_bvXHgk-24" target="FeHKe5AxDK6OaH7JaS3C-14" edge="1">
          <mxGeometry relative="1" as="geometry">
            <Array as="points">
              <mxPoint x="157" y="640" />
              <mxPoint x="240" y="640" />
              <mxPoint x="240" y="800" />
              <mxPoint x="72" y="800" />
              <mxPoint x="72" y="125" />
              <mxPoint x="140" y="125" />
            </Array>
          </mxGeometry>
        </mxCell>
        <mxCell id="Nr69Wi0nUV-9w_bvXHgk-24" value="" style="rounded=0;whiteSpace=wrap;html=1;strokeWidth=2;" parent="1" vertex="1">
          <mxGeometry x="91.86999999999999" y="549.5" width="130" height="55" as="geometry" />
        </mxCell>
        <mxCell id="Nr69Wi0nUV-9w_bvXHgk-25" value="&lt;font style=&quot;font-size: 18px&quot; face=&quot;Times New Roman&quot;&gt;$$\mbox{Shift Left}$$&lt;/font&gt;" style="text;html=1;strokeColor=none;fillColor=none;align=center;verticalAlign=middle;whiteSpace=wrap;rounded=0;" parent="1" vertex="1">
          <mxGeometry x="106.86999999999999" y="534.5" width="100" height="60" as="geometry" />
        </mxCell>
        <mxCell id="Nr69Wi0nUV-9w_bvXHgk-26" value="&lt;font style=&quot;font-size: 18px&quot; face=&quot;Times New Roman&quot;&gt;$$\mbox{Operation}$$&lt;/font&gt;" style="text;html=1;strokeColor=none;fillColor=none;align=center;verticalAlign=middle;whiteSpace=wrap;rounded=0;" parent="1" vertex="1">
          <mxGeometry x="106.86999999999999" y="559.5" width="99.37" height="60" as="geometry" />
        </mxCell>
        <mxCell id="Nr69Wi0nUV-9w_bvXHgk-57" style="edgeStyle=orthogonalEdgeStyle;rounded=0;orthogonalLoop=1;jettySize=auto;html=1;exitX=0.5;exitY=1;exitDx=0;exitDy=0;fontSize=18;strokeWidth=2;endArrow=none;endFill=0;" parent="1" source="Nr69Wi0nUV-9w_bvXHgk-27" edge="1">
          <mxGeometry relative="1" as="geometry">
            <mxPoint x="160" y="640" as="targetPoint" />
            <Array as="points">
              <mxPoint x="316" y="640" />
            </Array>
          </mxGeometry>
        </mxCell>
        <mxCell id="Nr69Wi0nUV-9w_bvXHgk-27" value="" style="rounded=0;whiteSpace=wrap;html=1;strokeWidth=2;" parent="1" vertex="1">
          <mxGeometry x="250.62" y="549.5" width="130" height="55" as="geometry" />
        </mxCell>
        <mxCell id="Nr69Wi0nUV-9w_bvXHgk-28" value="&lt;font face=&quot;Times New Roman&quot; style=&quot;font-size: 18px&quot;&gt;$$\mbox{Disturbance}$$&lt;/font&gt;" style="text;html=1;strokeColor=none;fillColor=none;align=center;verticalAlign=middle;whiteSpace=wrap;rounded=0;strokeWidth=2;" parent="1" vertex="1">
          <mxGeometry x="260.62" y="554.5" width="110" height="20" as="geometry" />
        </mxCell>
        <mxCell id="Nr69Wi0nUV-9w_bvXHgk-29" value="&lt;span style=&quot;background-color: rgb(255 , 255 , 255)&quot;&gt;&lt;font face=&quot;Times New Roman&quot; style=&quot;font-size: 18px&quot;&gt;$$b_{pr-1} \oplus b_{pr}$$&lt;/font&gt;&lt;/span&gt;" style="text;html=1;strokeColor=none;fillColor=none;align=center;verticalAlign=middle;whiteSpace=wrap;rounded=0;fontSize=24;strokeWidth=2;" parent="1" vertex="1">
          <mxGeometry x="285.62" y="574.5" width="60" height="20" as="geometry" />
        </mxCell>
        <mxCell id="Nr69Wi0nUV-9w_bvXHgk-60" style="edgeStyle=orthogonalEdgeStyle;rounded=0;orthogonalLoop=1;jettySize=auto;html=1;exitX=0.5;exitY=1;exitDx=0;exitDy=0;fontSize=18;endArrow=none;endFill=0;strokeWidth=2;" parent="1" source="Nr69Wi0nUV-9w_bvXHgk-30" edge="1">
          <mxGeometry relative="1" as="geometry">
            <mxPoint x="510" y="720" as="targetPoint" />
            <Array as="points">
              <mxPoint x="665" y="720" />
            </Array>
          </mxGeometry>
        </mxCell>
        <mxCell id="Nr69Wi0nUV-9w_bvXHgk-30" value="" style="rounded=0;whiteSpace=wrap;html=1;strokeWidth=2;" parent="1" vertex="1">
          <mxGeometry x="600" y="550.5" width="130" height="55" as="geometry" />
        </mxCell>
        <mxCell id="Nr69Wi0nUV-9w_bvXHgk-31" value="&lt;font face=&quot;Times New Roman&quot; style=&quot;font-size: 18px&quot;&gt;$$\mbox{Disturbance}$$&lt;/font&gt;" style="text;html=1;strokeColor=none;fillColor=none;align=center;verticalAlign=middle;whiteSpace=wrap;rounded=0;strokeWidth=2;" parent="1" vertex="1">
          <mxGeometry x="610" y="555.5" width="110" height="20" as="geometry" />
        </mxCell>
        <mxCell id="Nr69Wi0nUV-9w_bvXHgk-32" value="&lt;span style=&quot;background-color: rgb(255 , 255 , 255)&quot;&gt;&lt;font face=&quot;Times New Roman&quot; style=&quot;font-size: 18px&quot;&gt;$$b_{pr-1} \oplus b_{pr}$$&lt;/font&gt;&lt;/span&gt;" style="text;html=1;strokeColor=none;fillColor=none;align=center;verticalAlign=middle;whiteSpace=wrap;rounded=0;fontSize=24;strokeWidth=2;" parent="1" vertex="1">
          <mxGeometry x="635" y="575.5" width="60" height="20" as="geometry" />
        </mxCell>
        <mxCell id="Nr69Wi0nUV-9w_bvXHgk-38" value="&lt;font face=&quot;Times New Roman&quot; style=&quot;font-size: 18px&quot;&gt;$$\mbox{Yes}$$&lt;/font&gt;" style="text;html=1;strokeColor=none;fillColor=none;align=center;verticalAlign=middle;whiteSpace=wrap;rounded=0;" parent="1" vertex="1">
          <mxGeometry x="200" y="430" width="40" height="15" as="geometry" />
        </mxCell>
        <mxCell id="Nr69Wi0nUV-9w_bvXHgk-42" value="&lt;font face=&quot;Times New Roman&quot; style=&quot;font-size: 18px&quot;&gt;$$b_1 \ \mbox{to} \ b_{pr}$$&lt;/font&gt;" style="text;html=1;strokeColor=none;fillColor=none;align=center;verticalAlign=middle;whiteSpace=wrap;rounded=0;" parent="1" vertex="1">
          <mxGeometry x="90" y="505" width="70" height="15" as="geometry" />
        </mxCell>
        <mxCell id="Nr69Wi0nUV-9w_bvXHgk-44" value="&lt;span style=&quot;background-color: rgb(248 , 249 , 250)&quot;&gt;&lt;font style=&quot;font-size: 18px&quot; face=&quot;Times New Roman&quot;&gt;$$b_{pr-1} \ \mbox{and} \ b_{pr}$$&lt;/font&gt;&lt;/span&gt;" style="text;html=1;strokeColor=none;fillColor=none;align=center;verticalAlign=middle;whiteSpace=wrap;rounded=0;" parent="1" vertex="1">
          <mxGeometry x="221.87" y="507.5" width="88.13" height="10" as="geometry" />
        </mxCell>
        <mxCell id="Nr69Wi0nUV-9w_bvXHgk-49" value="&lt;font face=&quot;Times New Roman&quot; style=&quot;font-size: 18px&quot;&gt;$$\mbox{Yes}$$&lt;/font&gt;" style="text;html=1;strokeColor=none;fillColor=none;align=center;verticalAlign=middle;whiteSpace=wrap;rounded=0;" parent="1" vertex="1">
          <mxGeometry x="545" y="430" width="35" height="15" as="geometry" />
        </mxCell>
        <mxCell id="Nr69Wi0nUV-9w_bvXHgk-50" value="&lt;font face=&quot;Times New Roman&quot; style=&quot;font-size: 18px&quot;&gt;$$b_1 \ \mbox{to} \ b_{pr}$$&lt;/font&gt;" style="text;html=1;strokeColor=none;fillColor=none;align=center;verticalAlign=middle;whiteSpace=wrap;rounded=0;" parent="1" vertex="1">
          <mxGeometry x="440" y="505" width="60" height="15" as="geometry" />
        </mxCell>
        <mxCell id="Nr69Wi0nUV-9w_bvXHgk-51" value="&lt;span style=&quot;background-color: rgb(248 , 249 , 250)&quot;&gt;&lt;font style=&quot;font-size: 18px&quot; face=&quot;Times New Roman&quot;&gt;$$b_{pr-1} \ \mbox{and} \ b_{pr}$$&lt;/font&gt;&lt;/span&gt;" style="text;html=1;strokeColor=none;fillColor=none;align=center;verticalAlign=middle;whiteSpace=wrap;rounded=0;" parent="1" vertex="1">
          <mxGeometry x="580" y="507.5" width="70" height="10" as="geometry" />
        </mxCell>
        <mxCell id="Nr69Wi0nUV-9w_bvXHgk-58" value="&lt;font face=&quot;Times New Roman&quot; style=&quot;font-size: 18px&quot;&gt;$$pr \mbox{ bits}$$&lt;/font&gt;" style="text;html=1;strokeColor=none;fillColor=none;align=center;verticalAlign=middle;whiteSpace=wrap;rounded=0;" parent="1" vertex="1">
          <mxGeometry x="245" y="750" width="50" height="15" as="geometry" />
        </mxCell>
        <mxCell id="Nr69Wi0nUV-9w_bvXHgk-61" value="&lt;font face=&quot;Times New Roman&quot; style=&quot;font-size: 18px&quot;&gt;$$pr \mbox{ bits}$$&lt;/font&gt;" style="text;html=1;strokeColor=none;fillColor=none;align=center;verticalAlign=middle;whiteSpace=wrap;rounded=0;" parent="1" vertex="1">
          <mxGeometry x="593.75" y="750" width="50" height="15" as="geometry" />
        </mxCell>
      </root>
    </mxGraphModel>
  </diagram>
</mxfile>
